<svg width="148" height="29" viewBox="0 0 148 29" fill="none" xmlns="http://www.w3.org/2000/svg">
<path d="M4.6 23.66H21.16V27.14H4.6V23.66ZM2.83 15.41H23.17V28.64H19.3V18.86H6.52V28.67H2.83V15.41ZM15.46 5.15L18.28 3.26C19.2 4.12 20.17 5.08 21.19 6.14C22.21 7.2 23.17 8.25 24.07 9.29C24.97 10.31 25.68 11.25 26.2 12.11L23.17 14.33C22.67 13.49 21.99 12.54 21.13 11.48C20.29 10.4 19.37 9.31 18.37 8.21C17.37 7.09 16.4 6.07 15.46 5.15ZM1.84 13.4C1.8 13.16 1.71 12.83 1.57 12.41C1.43 11.99 1.28 11.55 1.12 11.09C0.96 10.63 0.81 10.25 0.67 9.95C1.09 9.85 1.49 9.66 1.87 9.38C2.25 9.08 2.69 8.7 3.19 8.24C3.45 7.98 3.83 7.58 4.33 7.04C4.83 6.5 5.38 5.86 5.98 5.12C6.6 4.36 7.22 3.55 7.84 2.69C8.48 1.81 9.05 0.919999 9.55 0.0199983L13.21 1.58C12.31 2.84 11.34 4.08 10.3 5.3C9.28 6.52 8.23 7.67 7.15 8.75C6.09 9.81 5.03 10.76 3.97 11.6V11.69C3.97 11.69 3.86 11.75 3.64 11.87C3.44 11.99 3.2 12.14 2.92 12.32C2.64 12.48 2.39 12.67 2.17 12.89C1.95 13.09 1.84 13.26 1.84 13.4ZM1.84 13.4L1.81 10.61L4.24 9.35L22.69 8.72C22.71 9.22 22.75 9.79 22.81 10.43C22.87 11.07 22.94 11.58 23.02 11.96C20.14 12.1 17.64 12.22 15.52 12.32C13.42 12.42 11.64 12.51 10.18 12.59C8.74 12.67 7.53 12.74 6.55 12.8C5.59 12.86 4.81 12.92 4.21 12.98C3.63 13.04 3.16 13.11 2.8 13.19C2.44 13.25 2.12 13.32 1.84 13.4ZM29.68 7.64H38.59V11.21H29.68V7.64ZM44.35 1.01H48.1V22.37C48.1 23.19 48.16 23.71 48.28 23.93C48.42 24.15 48.73 24.26 49.21 24.26C49.33 24.26 49.51 24.26 49.75 24.26C49.99 24.26 50.25 24.26 50.53 24.26C50.83 24.26 51.1 24.26 51.34 24.26C51.6 24.26 51.78 24.26 51.88 24.26C52.28 24.26 52.57 24.07 52.75 23.69C52.93 23.31 53.06 22.63 53.14 21.65C53.24 20.65 53.32 19.25 53.38 17.45C53.68 17.69 54.03 17.92 54.43 18.14C54.85 18.36 55.27 18.56 55.69 18.74C56.13 18.92 56.51 19.05 56.83 19.13C56.71 21.21 56.51 22.89 56.23 24.17C55.97 25.43 55.52 26.34 54.88 26.9C54.26 27.48 53.39 27.77 52.27 27.77C52.11 27.77 51.86 27.77 51.52 27.77C51.2 27.77 50.84 27.77 50.44 27.77C50.06 27.77 49.7 27.77 49.36 27.77C49.04 27.77 48.81 27.77 48.67 27.77C47.55 27.77 46.68 27.61 46.06 27.29C45.44 26.97 45 26.41 44.74 25.61C44.48 24.81 44.35 23.72 44.35 22.34V1.01ZM36.64 1.01H40.39V23.42H36.64V1.01ZM28.6 24.59C29.7 24.25 30.99 23.83 32.47 23.33C33.95 22.83 35.51 22.29 37.15 21.71C38.81 21.13 40.45 20.56 42.07 20L42.7 23.21C41.28 23.83 39.84 24.44 38.38 25.04C36.92 25.62 35.5 26.18 34.12 26.72C32.74 27.28 31.45 27.8 30.25 28.28L28.6 24.59ZM46.3 7.58H55.96V11.18H46.3V7.58ZM59.14 12.35H86.92V16.28H59.14V12.35ZM92.62 2.33H113.56V28.28H109.69V5.96H96.31V28.34H92.62V2.33ZM95.14 12.41H111.28V15.95H95.14V12.41ZM95.14 22.73H111.31V26.36H95.14V22.73ZM126.64 4.4H136.72V7.34H126.64V4.4ZM130.63 9.65H134.71V12.56H130.63V9.65ZM133.6 9.65H136.63C136.63 9.65 136.62 9.81 136.6 10.13C136.6 10.45 136.6 10.7 136.6 10.88C136.54 12.88 136.47 14.59 136.39 16.01C136.33 17.43 136.25 18.6 136.15 19.52C136.07 20.44 135.97 21.17 135.85 21.71C135.73 22.23 135.58 22.61 135.4 22.85C135.14 23.21 134.87 23.47 134.59 23.63C134.31 23.77 133.98 23.88 133.6 23.96C133.3 24.02 132.92 24.06 132.46 24.08C132.02 24.08 131.54 24.08 131.02 24.08C131 23.64 130.92 23.15 130.78 22.61C130.64 22.05 130.47 21.58 130.27 21.2C130.65 21.22 130.98 21.24 131.26 21.26C131.56 21.26 131.81 21.26 132.01 21.26C132.17 21.28 132.31 21.26 132.43 21.2C132.55 21.14 132.66 21.03 132.76 20.87C132.9 20.67 133.02 20.21 133.12 19.49C133.22 18.77 133.31 17.67 133.39 16.19C133.47 14.69 133.54 12.69 133.6 10.19V9.65ZM138.16 3.53H147.04V6.5H138.16V3.53ZM137.08 14.12H146.98V16.97H137.08V14.12ZM137.92 8.27H144.52V10.88H137.92V8.27ZM139.15 0.349999L142.12 1.19C141.82 2.17 141.46 3.16 141.04 4.16C140.64 5.16 140.2 6.12 139.72 7.04C139.26 7.94 138.79 8.73 138.31 9.41C138.13 9.23 137.88 9.02 137.56 8.78C137.26 8.54 136.95 8.3 136.63 8.06C136.33 7.82 136.07 7.63 135.85 7.49C136.53 6.59 137.16 5.5 137.74 4.22C138.34 2.94 138.81 1.65 139.15 0.349999ZM140.44 12.41H143.5V20.63C143.5 21.31 143.42 21.88 143.26 22.34C143.12 22.78 142.8 23.12 142.3 23.36C141.86 23.6 141.32 23.75 140.68 23.81C140.04 23.85 139.3 23.87 138.46 23.87C138.4 23.45 138.27 22.96 138.07 22.4C137.89 21.84 137.69 21.35 137.47 20.93C138.01 20.95 138.52 20.96 139 20.96C139.5 20.96 139.83 20.95 139.99 20.93C140.29 20.93 140.44 20.81 140.44 20.57V12.41ZM143.62 8.27H144.34L144.91 8.09L146.83 9.53C146.17 10.37 145.42 11.22 144.58 12.08C143.74 12.94 142.92 13.67 142.12 14.27C141.92 13.99 141.65 13.67 141.31 13.31C140.97 12.93 140.68 12.63 140.44 12.41C141.06 11.95 141.66 11.37 142.24 10.67C142.84 9.95 143.3 9.33 143.62 8.81V8.27ZM128.98 5.78H131.83V9.95C131.83 10.91 131.79 11.97 131.71 13.13C131.63 14.27 131.47 15.45 131.23 16.67C131.01 17.89 130.66 19.07 130.18 20.21C129.72 21.35 129.11 22.4 128.35 23.36C128.19 23.16 127.98 22.94 127.72 22.7C127.48 22.44 127.22 22.19 126.94 21.95C126.66 21.69 126.41 21.49 126.19 21.35C126.81 20.51 127.31 19.6 127.69 18.62C128.07 17.62 128.35 16.61 128.53 15.59C128.71 14.55 128.83 13.55 128.89 12.59C128.95 11.61 128.98 10.72 128.98 9.92V5.78ZM129.73 1.04L132.85 0.47C133.09 1.09 133.33 1.76 133.57 2.48C133.81 3.2 133.98 3.83 134.08 4.37L130.84 5.03C130.74 4.51 130.58 3.87 130.36 3.11C130.16 2.35 129.95 1.66 129.73 1.04ZM119.92 2.06L122.68 0.559999C123.3 1.28 123.93 2.07 124.57 2.93C125.21 3.79 125.72 4.53 126.1 5.15L123.22 6.92C123 6.48 122.7 5.98 122.32 5.42C121.96 4.86 121.57 4.29 121.15 3.71C120.73 3.11 120.32 2.56 119.92 2.06ZM119.26 7.52H125.59V10.37H119.26V7.52ZM125.35 20.54C125.91 21.88 126.66 22.88 127.6 23.54C128.56 24.18 129.73 24.6 131.11 24.8C132.51 24.98 134.12 25.08 135.94 25.1C137 25.1 138.21 25.08 139.57 25.04C140.93 25 142.3 24.95 143.68 24.89C145.08 24.81 146.35 24.71 147.49 24.59C147.33 24.83 147.17 25.15 147.01 25.55C146.87 25.95 146.74 26.36 146.62 26.78C146.5 27.2 146.41 27.58 146.35 27.92C145.31 27.96 144.2 28 143.02 28.04C141.86 28.1 140.67 28.14 139.45 28.16C138.25 28.18 137.06 28.19 135.88 28.19C134.12 28.19 132.56 28.1 131.2 27.92C129.84 27.76 128.64 27.45 127.6 26.99C126.58 26.55 125.69 25.89 124.93 25.01C124.17 24.13 123.51 22.96 122.95 21.5L125.35 20.54ZM123.91 14.81H124.99L125.56 14.72L127.06 15.32C126.64 18.6 125.9 21.37 124.84 23.63C123.78 25.87 122.47 27.59 120.91 28.79C120.77 28.55 120.55 28.27 120.25 27.95C119.97 27.63 119.68 27.32 119.38 27.02C119.08 26.74 118.81 26.53 118.57 26.39C120.01 25.37 121.18 23.92 122.08 22.04C122.98 20.16 123.59 17.93 123.91 15.35V14.81ZM119.98 18.05V15.47L121.27 14.81H125.71L125.68 17.6H121.81C121.47 17.6 121.11 17.64 120.73 17.72C120.35 17.8 120.1 17.91 119.98 18.05ZM119.98 18.05C119.92 17.79 119.81 17.47 119.65 17.09C119.51 16.71 119.36 16.34 119.2 15.98C119.06 15.6 118.93 15.31 118.81 15.11C119.07 15.05 119.32 14.95 119.56 14.81C119.82 14.67 120.08 14.45 120.34 14.15C120.54 13.95 120.82 13.59 121.18 13.07C121.56 12.53 121.97 11.93 122.41 11.27C122.85 10.61 123.26 9.97 123.64 9.35C124.02 8.73 124.33 8.21 124.57 7.79V7.7L125.5 7.31L127.72 8.24C127.4 8.76 127.01 9.37 126.55 10.07C126.11 10.75 125.64 11.46 125.14 12.2C124.66 12.94 124.18 13.65 123.7 14.33C123.22 15.01 122.78 15.59 122.38 16.07C122.38 16.07 122.26 16.14 122.02 16.28C121.78 16.4 121.5 16.56 121.18 16.76C120.86 16.96 120.58 17.18 120.34 17.42C120.1 17.64 119.98 17.85 119.98 18.05Z" fill="#448899"/>
</svg>
